<?xml version="1.0" encoding="utf-8"?>
<!-- Generator: Adobe Illustrator 24.3.0, SVG Export Plug-In . SVG Version: 6.00 Build 0)  -->
<svg version="1.1" id="Calque_1" xmlns="http://www.w3.org/2000/svg" xmlns:xlink="http://www.w3.org/1999/xlink" x="0px" y="0px"
	 viewBox="0 0 1011.4 407.9" style="enable-background:new 0 0 1011.4 407.9;" xml:space="preserve">
<style type="text/css">
	.st0{fill:url(#SVGID_1_);}
	.st1{fill:url(#SVGID_2_);}
	.st2{fill:url(#SVGID_3_);}
	.st3{fill:#020202;}
	.st4{fill:url(#SVGID_4_);}
	.st5{fill:url(#SVGID_5_);}
	.st6{fill:url(#SVGID_6_);}
	.st7{fill:url(#SVGID_7_);}
	.st8{fill:url(#SVGID_8_);}
	.st9{fill:url(#SVGID_9_);}
</style>
<g>
	<g>
		<g>
			
				<radialGradient id="SVGID_1_" cx="243.0734" cy="314.7168" r="287.7931" gradientTransform="matrix(1 0 0 -1 0 408)" gradientUnits="userSpaceOnUse">
				<stop  offset="0" style="stop-color:#E50046"/>
				<stop  offset="1" style="stop-color:#BE0A28"/>
			</radialGradient>
			<path class="st0" d="M76.5,283.7c-16.8-19-27.1-43.9-27.1-71.2c0-46,28.9-85.2,69.6-100.5l13-42.1C63.8,81.6,12,141,12,212.5
				c0,50.2,25.6,94.5,64.4,120.4L76.5,283.7L76.5,283.7z"/>
			
				<radialGradient id="SVGID_2_" cx="243.0734" cy="314.7168" r="287.7931" gradientTransform="matrix(1 0 0 -1 0 408)" gradientUnits="userSpaceOnUse">
				<stop  offset="0" style="stop-color:#E50046"/>
				<stop  offset="1" style="stop-color:#BE0A28"/>
			</radialGradient>
			<path class="st1" d="M181.3,69.8l12.7,41.9c41,15.1,70.2,54.5,70.2,100.7c0,27.3-10.2,52.3-27.1,71.2v49.2
				c38.8-26,64.4-70.2,64.4-120.4C301.5,140.9,249.6,81.5,181.3,69.8z"/>
			
				<radialGradient id="SVGID_3_" cx="243.0734" cy="314.7168" r="287.7931" gradientTransform="matrix(1 0 0 -1 0 408)" gradientUnits="userSpaceOnUse">
				<stop  offset="0" style="stop-color:#E50046"/>
				<stop  offset="1" style="stop-color:#BE0A28"/>
			</radialGradient>
			<path class="st2" d="M184.4,316.2c-8.8,2.3-18,3.6-27.6,3.6c-9.5,0-18.8-1.3-27.6-3.6v38.3c8.9,1.7,18.1,2.7,27.6,2.7
				c9.4,0,18.6-0.9,27.6-2.7V316.2z"/>
		</g>
		<g>
			<path class="st3" d="M115.4,182.4l41.4-134l40.3,132.5l7.5,9L159.2,40.2c1.7-0.9,2.8-2.6,2.8-4.6c0-2.2-1.4-4.1-3.4-4.9v-10h4.2
				V17h-4.2v-5.4H155V17h-4.2v3.7h4.2v10.1c-2,0.7-3.4,2.6-3.4,4.9c0,2,1.2,3.8,2.8,4.6l-47.1,151.9L115.4,182.4z"/>
			<polygon class="st3" points="189.6,171.9 160.6,83.2 160.6,137.1 			"/>
			<polygon class="st3" points="153,83 123,173.3 153,137.3 			"/>
			<path class="st3" d="M156.8,77L156.8,77L156.8,77z"/>
			<path class="st3" d="M219.3,199.6v-15.1h4.9l-2-2.8c-1.9-2.7-3.5-10.9-4.5-22.4c-0.1-1.1-0.7-1.9-1.4-1.9s-1.3,0.8-1.4,1.9l0,0
				c-1,11.5-2.6,19.7-4.5,22.4l-2,2.8h4.9v15.1H205l-48.2-58.7l-48.2,58.7h-8.3v-15.1h4.9l-2-2.8c-1.9-2.7-3.5-10.9-4.5-22.4
				c-0.1-1.1-0.7-1.9-1.4-1.9s-1.3,0.8-1.4,1.9l0,0c-1,11.5-2.6,19.7-4.5,22.4l-2,2.8h4.9v15.1H89v183l27.6,12.8V254.1
				c0,0-0.6-44,40.1-64.4c40.8,20.4,40.1,64.4,40.1,64.4v141.4l27.6-12.8v-183h-5.1V199.6z M156.8,180.8c-6.3,0-11.4-5.1-11.4-11.4
				c0-6.3,5.1-11.4,11.4-11.4c6.3,0,11.4,5.1,11.4,11.4S163.1,180.8,156.8,180.8z"/>
		</g>
	</g>
	<g>
		<g>
			<path class="st3" d="M530.8,352.8l-22.5-54l6-0.5l19.9,49.3l19.6-49.3l6,0.5l-22.5,54H530.8z"/>
			<path class="st3" d="M567.5,352.8v-54.2h39.1v4.4h-33.3v19.2h31.2v4.3h-31.2v21.8h34.8v4.4h-40.6V352.8z"/>
			<path class="st3" d="M655.2,300.1l-1.3,4c-1-0.4-2.2-0.7-3.6-0.9c-1.3-0.2-2.8-0.5-4.3-0.7s-3-0.4-4.4-0.5
				c-1.5-0.1-2.8-0.2-4.1-0.2c-5,0-9,0.9-12,2.6c-3,1.8-4.5,4.1-4.5,7.1c0,1.3,0.3,2.5,0.9,3.6c0.6,1.1,1.6,2.1,3,3
				c1.4,1,3.2,1.9,5.5,2.8s5.1,1.8,8.6,2.8c3.7,1,6.7,2.1,9.2,3.2c2.4,1.1,4.4,2.2,6,3.4c1.5,1.2,2.6,2.5,3.3,4s1,3.2,1,5.1
				c0,3-0.9,5.5-2.8,7.6c-1.9,2.1-4.6,3.7-8.1,4.8c-3.5,1.1-7.7,1.7-12.7,1.7c-1.7,0-3.5-0.1-5.5-0.2c-1.9-0.2-3.9-0.4-5.9-0.7
				c-2-0.3-3.9-0.6-5.7-1s-3.3-0.7-4.6-1.2l1.4-4c1.3,0.4,2.9,0.8,4.6,1.2c1.7,0.4,3.5,0.7,5.3,0.9c1.8,0.3,3.7,0.5,5.5,0.6
				c1.9,0.2,3.6,0.2,5.1,0.2c3.7,0,6.9-0.4,9.5-1.2c2.6-0.8,4.6-1.9,6-3.3s2.1-3.2,2.1-5.3c0-1.4-0.4-2.6-1.1-3.8
				c-0.7-1.1-1.8-2.1-3.3-3.1c-1.5-0.9-3.4-1.8-5.8-2.7c-2.4-0.9-5.3-1.8-8.7-2.8s-6.3-2.1-8.7-3.1c-2.4-1.1-4.3-2.2-5.8-3.4
				c-1.5-1.2-2.5-2.6-3.2-4c-0.6-1.4-1-3.1-1-5c0-2.1,0.5-4,1.5-5.7s2.4-3.2,4.4-4.4c1.9-1.3,4.3-2.2,7.1-2.9c2.8-0.7,5.9-1,9.5-1
				c2,0,4.1,0.1,6.3,0.3c2.2,0.2,4.3,0.5,6.3,0.8C652.1,299.2,653.8,299.6,655.2,300.1z"/>
			<path class="st3" d="M693.1,353.5c-2.9,0-5.7-0.3-8.4-0.8s-5.2-1.4-7.5-2.7c-2.3-1.3-4.3-3-6-5.1s-3-4.8-3.9-7.9
				s-1.4-6.9-1.4-11.2c0-4.4,0.5-8.2,1.4-11.4c0.9-3.2,2.2-5.8,3.8-7.9s3.6-3.8,5.9-5.1c2.3-1.3,4.8-2.2,7.5-2.7s5.5-0.8,8.5-0.8
				s5.8,0.3,8.6,0.8c2.7,0.5,5.2,1.4,7.5,2.6s4.2,2.9,6,5c1.7,2.1,3,4.8,3.9,7.9c0.9,3.2,1.4,7,1.4,11.3c0,4.5-0.5,8.3-1.4,11.5
				s-2.2,5.9-3.9,8s-3.6,3.8-5.9,5c-2.3,1.2-4.8,2.1-7.5,2.7C699,353.3,696.1,353.5,693.1,353.5z M693.1,349.5
				c2.2,0,4.4-0.2,6.5-0.7c2.1-0.4,4.1-1.2,5.9-2.2c1.8-1,3.4-2.4,4.8-4.2s2.4-4.1,3.2-6.8c0.8-2.8,1.1-6.1,1.1-10s-0.4-7.2-1.1-10
				c-0.8-2.8-1.8-5-3.2-6.8s-3-3.2-4.8-4.3c-1.8-1.1-3.8-1.8-5.9-2.2c-2.1-0.4-4.3-0.7-6.5-0.7s-4.3,0.2-6.4,0.7
				c-2.1,0.4-4,1.2-5.8,2.2s-3.4,2.5-4.8,4.3c-1.4,1.8-2.4,4.1-3.2,6.9c-0.7,2.8-1.1,6.1-1.1,10c0,3.8,0.4,7.1,1.1,9.8
				c0.8,2.7,1.8,5,3.2,6.8c1.3,1.8,2.9,3.2,4.7,4.3s3.7,1.8,5.8,2.2C688.8,349.3,690.9,349.5,693.1,349.5z"/>
			<path class="st3" d="M730.5,336.7v-38.2h5.7v38.3c0,2.1,0.4,3.8,1.1,5.3c0.7,1.5,1.6,2.7,2.8,3.6s2.6,1.7,4.2,2.2
				c1.6,0.6,3.3,1,5,1.2s3.5,0.3,5.2,0.3c1.8,0,3.5-0.1,5.3-0.3c1.8-0.2,3.4-0.6,4.9-1.2s2.9-1.3,4.1-2.2c1.2-0.9,2.2-2.1,2.9-3.6
				s1.1-3.2,1.1-5.3v-38.3h5.7v38.2c0,2.7-0.4,5-1.3,6.9c-0.9,1.9-2.1,3.5-3.6,4.8s-3.3,2.3-5.2,3c-2,0.7-4.1,1.3-6.6,1.6
				c-2.4,0.3-4.8,0.5-7.3,0.5c-2.4,0-4.8-0.2-7.2-0.5s-4.5-0.8-6.6-1.6c-2-0.7-3.8-1.8-5.3-3c-1.5-1.3-2.7-2.9-3.5-4.8
				C730.9,341.7,730.5,339.4,730.5,336.7z"/>
			<path class="st3" d="M790.9,352.8v-54.2h5.8v49.9h31.4v4.3L790.9,352.8L790.9,352.8z"/>
		</g>
		<g>
			
				<linearGradient id="SVGID_4_" gradientUnits="userSpaceOnUse" x1="535.05" y1="334.2724" x2="535.05" y2="286.4364" gradientTransform="matrix(1 0 0 -1 0 408)">
				<stop  offset="0" style="stop-color:#E50046"/>
				<stop  offset="1" style="stop-color:#BE0A28"/>
			</linearGradient>
			<path class="st4" d="M551.2,88.6c-1.1-7.4-7.1-11.9-15.9-11.9c-9.6,0-16.7,6.4-16.7,19.3c0,10.3,7.1,17.5,17.4,17.5
				c10.8,0,14.3-7.3,15.2-12.5h11.2c-1.5,9.8-8,20.3-28.3,20.3c-17.9,0-26.4-12.2-26.4-26.1s8.2-26.1,27.6-26.1
				c17,0,25.9,8.9,27,19.7h-11.1V88.6z"/>
			
				<linearGradient id="SVGID_5_" gradientUnits="userSpaceOnUse" x1="592.55" y1="334.2724" x2="592.55" y2="286.4364" gradientTransform="matrix(1 0 0 -1 0 408)">
				<stop  offset="0" style="stop-color:#E50046"/>
				<stop  offset="1" style="stop-color:#BE0A28"/>
			</linearGradient>
			<path class="st5" d="M570.8,70.3h43V78h-32.6v12.5h31.3v7.8h-31.3V112h33.1v7.8h-43.5V70.3z"/>
			
				<linearGradient id="SVGID_6_" gradientUnits="userSpaceOnUse" x1="646.65" y1="334.2724" x2="646.65" y2="286.4364" gradientTransform="matrix(1 0 0 -1 0 408)">
				<stop  offset="5.704979e-02" style="stop-color:#E50046"/>
				<stop  offset="1" style="stop-color:#BE0A28"/>
			</linearGradient>
			<path class="st6" d="M622.1,70.3h31.3c12.6,0,16.7,5.7,16.7,13.4c0,6.4-3.5,10.5-8.2,11.9v0.1c5.8,1.2,7.2,6.3,7.2,13.4
				c0,2.4,0.1,7.8,2.1,10.6H660c-0.8-1.4-1.2-3.9-1.2-7.5c0-7-1-12.1-8.6-12.1h-17.7v19.5h-10.4V70.3z M650.5,92.4
				c5.8,0,8.9-1.7,8.9-7.3c0-5.2-3.3-7.1-8.9-7.1h-17.9v14.4H650.5z"/>
			
				<linearGradient id="SVGID_7_" gradientUnits="userSpaceOnUse" x1="703.15" y1="334.2724" x2="703.15" y2="286.4364" gradientTransform="matrix(1 0 0 -1 0 408)">
				<stop  offset="0" style="stop-color:#E50046"/>
				<stop  offset="1" style="stop-color:#BE0A28"/>
			</linearGradient>
			<path class="st7" d="M719.3,88.6c-1.1-7.4-7.1-11.9-15.9-11.9c-9.6,0-16.7,6.4-16.7,19.3c0,10.3,7.1,17.5,17.4,17.5
				c10.8,0,14.3-7.3,15.2-12.5h11.2c-1.5,9.8-8,20.3-28.3,20.3c-17.9,0-26.4-12.2-26.4-26.1s8.2-26.1,27.6-26.1
				c17,0,25.9,8.9,27,19.7h-11.1V88.6z"/>
			
				<linearGradient id="SVGID_8_" gradientUnits="userSpaceOnUse" x1="759.15" y1="334.2724" x2="759.15" y2="286.4364" gradientTransform="matrix(1 0 0 -1 0 408)">
				<stop  offset="0" style="stop-color:#E50046"/>
				<stop  offset="1" style="stop-color:#BE0A28"/>
			</linearGradient>
			<path class="st8" d="M738.9,70.3h10.4v41.3h30.1v8.2h-40.5V70.3z"/>
			
				<linearGradient id="SVGID_9_" gradientUnits="userSpaceOnUse" x1="806.85" y1="334.2724" x2="806.85" y2="286.4364" gradientTransform="matrix(1 0 0 -1 0 408)">
				<stop  offset="0" style="stop-color:#E50046"/>
				<stop  offset="1" style="stop-color:#BE0A28"/>
			</linearGradient>
			<path class="st9" d="M785.1,70.3h43V78h-32.6v12.5h31.3v7.8h-31.3V112h33.1v7.8h-43.5V70.3z"/>
		</g>
		<g>
			<g>
				<path class="st3" d="M926.2,136.8c-40.1,0-72.6,32.6-72.6,72.6s32.6,72.6,72.6,72.6c40.1,0,72.6-32.6,72.6-72.6
					S966.2,136.8,926.2,136.8z M977.1,209.5c0,28.1-22.8,50.9-50.9,50.9c-28.1,0-50.9-22.8-50.9-50.9s22.8-50.9,50.9-50.9
					C954.3,158.5,977.1,181.4,977.1,209.5z"/>
				<path class="st3" d="M582,282.1c40.1,0,72.6-32.6,72.6-72.6v-72.6h-21.8v72.6v1.2c-0.6,27.5-23.2,49.7-50.9,49.7
					c-27.5,0-50-21.9-50.9-49.2v-74.4h-21.8v72.6C509.4,249.5,542,282.1,582,282.1z"/>
				<path class="st3" d="M754.3,136.8h-72.6v21.8h72.6h1.2c27.5,0.6,49.7,23.2,49.7,50.9c0,27.5-21.9,50-49.2,50.9h-74.4v21.8h72.6
					c40.1,0,72.6-32.6,72.6-72.6S794.4,136.8,754.3,136.8z"/>
				<path class="st3" d="M461,209.5v1.2c-0.6,27.5-23.2,49.7-50.9,49.7c-28.1,0-50.9-22.8-50.9-50.9v-1.7h-21.7v1.7
					c0,40.1,32.6,72.6,72.6,72.6s72.6-32.6,72.6-72.6v-72.6H461V209.5z"/>
			</g>
		</g>
	</g>
</g>
</svg>
